<?xml version="1.0" standalone="no"?>
<!DOCTYPE svg PUBLIC "-//W3C//DTD SVG 20010904//EN"
 "http://www.w3.org/TR/2001/REC-SVG-20010904/DTD/svg10.dtd">
<svg version="1.0" xmlns="http://www.w3.org/2000/svg"
 width="700.000000pt" height="700.000000pt" viewBox="0 0 700.000000 700.000000"
 preserveAspectRatio="xMidYMid meet">
<metadata>
Created by potrace 1.14, written by Peter Selinger 2001-2017
</metadata>
<g transform="translate(0.000000,700.000000) scale(0.100000,-0.100000)"
fill="#000000" stroke="none">
<path d="M4291 6509 c0 -270 -2 -494 -5 -497 -3 -3 -369 -6 -813 -6 l-808 -1
0 -250 0 -250 813 0 812 0 0 -62 c1 -81 1 -581 0 -813 l0 -180 -960 0 c-761 0
-960 -3 -961 -12 -1 -7 -2 -120 -3 -250 l-1 -236 25 -4 c14 -2 1046 -3 2293
-2 1635 0 2270 3 2275 11 5 8 8 446 3 486 -1 4 -473 7 -1051 7 -833 0 -1050 3
-1051 13 -3 76 0 1030 4 1034 3 2 402 4 886 4 l881 0 0 253 0 253 -885 -1
-885 -1 -1 55 c0 30 0 254 0 498 l-1 442 -284 0 -284 0 1 -491z"/>
<path d="M0 3450 l0 -2917 273 0 272 1 5 280 5 280 495 1 495 0 0 -188 0 -187
277 0 277 0 -2 2823 -2 2822 -1047 0 -1048 1 0 -2916z m1476 2410 l72 0 0
-935 0 -935 -499 0 -499 0 0 935 0 934 93 3 c77 3 269 2 833 -2z m71 -3310 l1
-950 -499 0 -499 0 0 950 0 950 499 0 498 0 0 -950z"/>
<path d="M5375 3741 c-3 -2 -5 -170 -5 -372 0 -285 -3 -368 -12 -371 -7 -2
-647 -4 -1421 -3 -963 1 -1411 -3 -1416 -10 -4 -5 -8 -118 -7 -250 l1 -240
950 -2 c523 -1 1165 -3 1428 -3 l477 0 -1 -752 c-1 -592 -4 -766 -14 -816 -41
-190 -153 -300 -340 -337 -36 -7 -328 -7 -447 0 -221 13 -268 16 -333 21 -38
3 -86 7 -105 9 -19 2 -75 7 -123 10 l-88 7 5 -23 c5 -22 28 -136 41 -204 10
-56 56 -320 60 -349 2 -15 7 -31 10 -35 4 -3 59 -8 123 -11 184 -8 1032 -5
1082 3 149 26 282 75 377 139 137 93 249 268 289 453 26 121 28 197 29 1037
l0 848 40 0 c22 1 262 0 533 0 l492 0 -2 252 -3 253 -528 0 c-520 0 -527 0
-528 20 0 11 -2 180 -2 375 l-2 355 -278 0 c-153 1 -280 -1 -282 -4z"/>
<path d="M3120 2279 c-36 -27 -72 -56 -81 -63 -9 -7 -52 -40 -95 -72 -44 -32
-81 -61 -84 -65 -3 -3 -26 -21 -52 -41 l-48 -35 127 -144 c69 -79 160 -184
201 -234 41 -49 78 -92 81 -95 4 -3 25 -27 46 -55 22 -27 42 -52 46 -55 6 -6
247 -309 323 -407 27 -35 52 -63 55 -63 7 0 43 24 71 47 8 6 101 75 205 153
105 77 190 144 190 149 0 7 -142 181 -200 245 -5 6 -39 45 -75 86 -36 41 -69
80 -75 86 -5 6 -41 46 -80 89 -38 43 -74 83 -80 89 -5 6 -50 56 -100 111 -49
55 -99 109 -110 121 -11 11 -58 62 -105 112 -46 51 -87 92 -90 91 -3 0 -34
-23 -70 -50z"/>
</g>
</svg>
